bicep_curl
version=1
nRows=101
nColumns=3
inDegrees=yes

# SIMM Motion File Header:
name bicep_curl
datacolumns 3
datarows 101
otherdata 1
range 0.00000 1.00000
endheader
time	/jointset/r_shoulder/r_shoulder_elev/value	/jointset/r_elbow/r_elbow_flex/value
0.000		0.000		0.000
0.010		0.000		1.400
0.020		0.000		2.800
0.030		0.000		4.200
0.040		0.000		5.600
0.050		0.000		7.000
0.060		0.000		8.400
0.070		0.000		9.800
0.080		0.000		11.200
0.090		0.000		12.600
0.100		0.000		14.000
0.110		0.000		15.400
0.120		0.000		16.800
0.130		0.000		18.200
0.140		0.000		19.600
0.150		0.000		21.000
0.160		0.000		22.400
0.170		0.000		23.800
0.180		0.000		25.200
0.190		0.000		26.600
0.200		0.000		28.000
0.210		0.000		29.400
0.220		0.000		30.800
0.230		0.000		32.200
0.240		0.000		33.600
0.250		0.000		35.000
0.260		0.000		36.400
0.270		0.000		37.800
0.280		0.000		39.200
0.290		0.000		40.600
0.300		0.000		42.000
0.310		0.000		43.400
0.320		0.000		44.800
0.330		0.000		46.200
0.340		0.000		47.600
0.350		0.000		49.000
0.360		0.000		50.400
0.370		0.000		51.800
0.380		0.000		53.200
0.390		0.000		54.600
0.400		0.000		56.000
0.410		0.000		57.400
0.420		0.000		58.800
0.430		0.000		60.200
0.440		0.000		61.600
0.450		0.000		63.000
0.460		0.000		64.400
0.470		0.000		65.800
0.480		0.000		67.200
0.490		0.000		68.600
0.500		0.000		70.000
0.510		0.000		71.400
0.520		0.000		72.800
0.530		0.000		74.200
0.540		0.000		75.600
0.550		0.000		77.000
0.560		0.000		78.400
0.570		0.000		79.800
0.580		0.000		81.200
0.590		0.000		82.600
0.600		0.000		84.000
0.610		0.000		85.400
0.620		0.000		86.800
0.630		0.000		88.200
0.640		0.000		89.600
0.650		0.000		91.000
0.660		0.000		92.400
0.670		0.000		93.800
0.680		0.000		95.200
0.690		0.000		96.600
0.700		0.000		98.000
0.710		0.000		99.400
0.720		0.000		100.800
0.730		0.000		102.200
0.740		0.000		103.600
0.750		0.000		105.000
0.760		0.000		106.400
0.770		0.000		107.800
0.780		0.000		109.200
0.790		0.000		110.600
0.800		0.000		112.000
0.810		0.000		113.400
0.820		0.000		114.800
0.830		0.000		116.200
0.840		0.000		117.600
0.850		0.000		119.000
0.860		0.000		120.400
0.870		0.000		121.800
0.880		0.000		123.200
0.890		0.000		124.600
0.900		0.000		126.000
0.910		0.000		127.400
0.920		0.000		128.800
0.930		0.000		130.200
0.940		0.000		131.600
0.950		0.000		133.000
0.960		0.000		134.400
0.970		0.000		135.800
0.980		0.000		137.200
0.990		0.000		138.600
1.000		0.000		140.000
